<?xml version="1.0" encoding="iso-8859-1"?>
<!-- Uploaded to: SVG Repo, www.svgrepo.com, Generator: SVG Repo Mixer Tools -->
<!DOCTYPE svg PUBLIC "-//W3C//DTD SVG 1.1//EN" "http://www.w3.org/Graphics/SVG/1.1/DTD/svg11.dtd">
<svg fill="#000000" version="1.1" id="Capa_1" xmlns="http://www.w3.org/2000/svg" xmlns:xlink="http://www.w3.org/1999/xlink" 
	 width="800px" height="800px" viewBox="0 0 913.5 913.5" xml:space="preserve"
	>
<g>
	<g>
		<path d="M673.9,29.4h-68.699l0,0c-3-6.9-6.5-13.7-10.7-20.4c-2.2-3.4-5.3-6.1-9-7.6C583.3,0.5,580.9,0,578.3,0
			c-6.4,0-12.5,2.7-16.3,7.3c-0.4,0.5-0.8,1-1.101,1.5c-2.8,4.2-3.899,9.4-3.1,14.4c0.3,2,0.7,3.9,1.1,5.8c0,0.1,0,0.2,0,0.2
			C559,29.6,559,30,559.1,30.4c2.7,14.3,4.9,26.6,1.4,38.5c-0.8,2.7-4.2,8.7-7.101,12.5c-15.199,19.7-33.199,37.9-53.699,54.4
			c-14.4,4.2-30.2,6.6-46.7,6.6c-13.9,0-27.3-1.7-39.8-4.7c-26.5-21.4-44.4-41.8-55.9-57.1c-2.9-3.8-6.1-9.7-6.9-12.5
			c-3.199-11.6-1-23.7,1.601-37.7c0.1-0.4,0.1-0.8,0.2-1.2c0-0.1,0-0.2,0-0.2c0.399-1.9,0.699-3.8,1.1-5.8c1-5.7-0.5-11.5-4.2-15.9
			c-0.5-0.6-1-1.1-1.5-1.6c-3.8-3.6-9.2-5.7-14.8-5.7c-2.6,0-5,0.5-7.2,1.4c-3.7,1.5-6.8,4.2-9,7.6c-4.2,6.6-7.7,13.4-10.7,20.4l0,0
			h-66.2c-93.4,0-169.1,75.7-169.1,169.1v278c0,5.5,4.5,10,10,10l108.8,0.1V261H217v642c0,8.6,4.1,10.5,10,10.5h460.1
			c0.3,0,1.601,0,1.601,0c4.8-0.6,8.5-5,8.5-10l0.6-319.801V261h28.3v225.699l106.8-0.199c5.5,0,10-4.5,10-10V198.4
			C843,105.1,767.3,29.4,673.9,29.4z M273.4,84.2v799.3h-29.1V84.3c-43.3,1.3-75.9,16-97.1,43.8c-22.9,30-26.3,67.2-26.3,86.7V438
			c0,5-3.6,9.5-8.5,10.2c-6.2,0.9-11.5-3.899-11.5-9.899V214.8c0-72.8,39.3-150.6,149.5-150.6h44.5c-1.6,6.7-2.899,13.3-4.1,20
			H273.4L273.4,84.2z M392,883.5H362.9V178.6c9.801,6.9,19.7,13.4,29.101,19.2V883.5z M422.6,198.6c-9.3-5.3-70.1-46.3-75.6-50.8
			c-3.4-2.7-8.601-4.4-13.3-4.4c-1.7,0-3.4,0.2-4.9,0.7l-31.1,10.1c-1,0.3-2,0.5-2.801,0.5c-3.5,0-4.899-3-3-7.7l1.601-3.9
			c5.899-19.1,8.899-39.1,12.7-58.9c1.3-6.7,2.699-13.4,4.3-20c2.899-12,6.7-23.7,12.1-34.8c0-0.1,0.101-0.2,0.101-0.2
			c1.8-3.8,5.699-15.1,11.399-14.1c2.2,0.4,4,2.4,4.5,4.6c0.7,2.9-0.899,6.6-1.5,9.5c0,0.1,0,0.2,0,0.2c-2.6,14.3-5,28.1-1.2,42.3
			c1.5,5.5,4.101,10.6,7.4,15.2c6.9,9.5,16.4,21.1,28.9,33.9c5.8,6,12.399,12.2,19.6,18.5l0.1,0.1c13.4,11.8,29.4,24.1,48.2,36.3
			c-3.3,2.3-6.5,4.9-9.5,8C426.1,188.5,423.8,193.7,422.6,198.6z M474.8,205.9c-5,2.9-9,10-9,16.1v3.8v117.3
			c0,6.3-4.6,11.3-10.4,11.3h-8.6c-5.7,0-10.4-5.1-10.4-11.3c0-3.7,0-7.4,0-11.1c0-27.2,0-54.4,0-81.6c0-9,0-18,0-27
			c0-2.8,0-5.7,0-8.5c0-0.1,0-0.2,0-0.4c0-2.8-0.1-5.5,0.101-8.1c0.3-4.4,1.399-8.6,4.899-12.3c3.5-3.7,7.801-6.6,12.2-9.3
			c1.5-0.9,3-1.8,4.5-2.6c0.7-0.4,1.4-0.8,2.101-1.3c2.199-1.3,4.399-2.5,6.5-3.9c31.899-19.3,60.699-42.4,85.3-70.4
			c4.6-5.2,9-10.5,13.3-16.1c0.2-0.3,0.4-0.5,0.6-0.8c3.301-4.5,7.5-11.5,9-16.5c2.7-9,2.9-18.5,1.801-27.8
			c-0.801-7.5-5.101-17.8-4.2-25.2c0.2-2,1.3-3.8,3-4.8c6.399-3.8,11.1,9.6,13,13.6c0,0.1,0.1,0.2,0.1,0.2
			c5.4,11.2,9.2,22.9,12.101,34.8c1.6,6.6,3,13.3,4.3,20c4.1,21.2,7.2,42.8,14.1,63.2c0.1,0.4,0.2,0.8,0.2,1.1
			c0,0.6,0.8,4.2-1.7,5.6c-0.6,0.3-1.3,0.5-2.2,0.5c-0.8,0-1.7-0.2-2.8-0.5l-31.1-10.1c-1.5-0.5-3.101-0.7-4.9-0.7
			c-4.7,0-9.9,1.7-13.3,4.4c-4.3,3.5-8.6,6.9-13,10.2c-8.3,6.2-16.8,12.1-25.1,17.6C506.5,187.7,488.6,198,474.9,205.4
			C475.1,205.8,474.9,205.9,474.8,205.9z M554.5,173.7v104.2h-25.8c-1.101,0-2.2,0.1-3.301,0.2v-84.6
			C535,187.5,544.8,180.8,554.5,173.7z M554.5,883.5H525.4V386.9c8.4,8.7,18.4,14.8,29.101,18.1V883.5z M626.5,334.2
			c0,29.8-24.101,58.5-53.9,58.5c-6.399,0-12.5-1.3-18.1-3.7c-12.4-5.199-22.7-15.3-29.101-27.699c-4.3-8.4-6.699-17.7-6.699-27.2
			v-31.3c0-4.4,2.8-8.1,6.699-9.4c1-0.4,2.101-0.6,3.301-0.6h25.8h62c5.5,0,10,4.5,10,10V334.2z M817.1,438.4c0,6-5.3,10.8-11.5,9.9
			c-5-0.7-8.5-5.2-8.5-10.2V214.8c0-19.5-3.399-56.7-26.3-86.7C749,99.5,715.1,84.8,670,84.2c1.3,0.9,1.899,1.5,1.899,1.5v797.8
			h-29.1V138.4V84.2h-22.4c-1.3-6.7-2.6-13.3-4.1-20h51.2C777.8,64.2,817,142,817,214.8L817.1,438.4L817.1,438.4z"/>
	</g>
</g>
</svg>